<?xml version="1.0" encoding="UTF-8" standalone="no"?>
<!-- Created with Inkscape (http://www.inkscape.org/) -->

<svg
   width="71.429962mm"
   height="88.283752mm"
   viewBox="0 0 71.429962 88.283752"
   version="1.1"
   id="svg5"
   xml:space="preserve"
   xmlns:inkscape="http://www.inkscape.org/namespaces/inkscape"
   xmlns:sodipodi="http://sodipodi.sourceforge.net/DTD/sodipodi-0.dtd"
   xmlns="http://www.w3.org/2000/svg"
   xmlns:svg="http://www.w3.org/2000/svg"><sodipodi:namedview
     id="namedview7"
     pagecolor="#505050"
     bordercolor="#ffffff"
     borderopacity="1"
     inkscape:showpageshadow="0"
     inkscape:pageopacity="0"
     inkscape:pagecheckerboard="1"
     inkscape:deskcolor="#505050"
     inkscape:document-units="mm"
     showgrid="false" /><defs
     id="defs2" /><g
     inkscape:label="Layer 1"
     inkscape:groupmode="layer"
     id="layer1"
     transform="translate(-50.301168,-123.55291)"><path
       style="fill:none;stroke:#000000;stroke-width:0.264583px;stroke-linecap:butt;stroke-linejoin:miter;stroke-opacity:1"
       d="m 51.13683,205.56328 c 0.0675,-1.01315 -0.08437,-2.03543 0,-3.04789 0.06629,-0.79546 0.294378,-1.57359 0.338653,-2.37058 0.06888,-1.23982 0,-2.48347 0,-3.7252 0,-1.69327 0,-3.38654 0,-5.07982 0,-6.43443 0,-12.86887 0,-19.3033 0,-1.35462 0,-2.70924 0,-4.06386 0,-1.01596 0.05966,-2.03368 0,-3.04789 -0.05344,-0.90853 -0.278114,-1.80114 -0.338653,-2.70923 -0.09762,-1.46426 0.13286,-2.94104 0,-4.40251 -0.05211,-0.57324 -0.286541,-1.12004 -0.338656,-1.69328 -0.06132,-0.67452 0,-1.35461 0,-2.03192 0,-1.69328 0,-3.38655 0,-5.07982 0,-0.90311 0,-0.45151 0,-1.35462 0,-0.22577 0,-0.45154 0,-0.67731 0,-0.11288 0.0357,-0.23156 0,-0.33865 -0.07982,-0.23947 -0.277434,-0.43243 -0.338654,-0.67731 -0.05476,-0.21903 0,-0.45154 0,-0.67731 0,-0.33865 0,-0.67731 0,-1.01596 0,-0.90308 0,-1.80616 0,-2.70924 0,-2.03193 0,-4.06385 0,-6.09578 0,-0.12437 -0.01363,-1.34099 0,-1.35462 0.07982,-0.0798 0.225769,0 0.338654,0 0.45154,0 0.903081,0 1.354619,0 4.317875,0 1.613,0.13732 7.111746,-0.67731 3.927477,-0.58184 6.139304,-0.88164 10.159634,-1.35462 2.030429,-0.23887 4.05769,-0.5164 6.095781,-0.67731 5.432097,-0.42885 7.025351,-0.33865 12.19156,-0.33865 12.486816,0 -1.430464,0.12015 10.498291,-0.33865 1.240817,-0.0477 2.483465,0 3.725195,0 3.61232,0 7.22463,0 10.83695,0 1.4675,0 2.935,0 4.40251,0 0.11288,0 0.22577,0 0.33865,0 0.11289,0 0.25883,-0.0798 0.33866,0 0.0798,0.0798 0,0.22577 0,0.33865 0,0.22577 0.0404,0.45518 0,0.67731 -0.18618,1.02396 -0.55571,2.01427 -0.67731,3.04789 -0.10552,0.89689 0,1.80616 0,2.70924 0,1.01596 0,2.03192 0,3.04789 0,2.14481 0,4.28962 0,6.43443 0,0.7902 -0.0563,1.5824 0,2.37059 0.27719,3.88068 0.45647,0.88399 0.67731,5.07981 0.0653,1.24002 -0.0564,2.48475 0,3.7252 -0.18109,2.07553 0.54131,4.05588 0.6773,6.09578 0.0601,0.90108 -0.0643,1.80845 0,2.70924 0.0489,0.6849 0.22577,1.35462 0.33866,2.03192 0.11289,0.7902 0.28556,1.57414 0.33865,2.37059 0.0601,0.90108 -0.0501,1.80755 0,2.70923 0.0629,1.13273 0.22577,2.2577 0.33866,3.38655 0.13143,1.31436 0.49173,5.04262 0.67731,6.43443 0.45,3.37503 0.33865,0.67946 0.33865,4.06386 0,5.3815 -0.13283,-0.98966 0.33866,3.7252 0.0562,0.56162 -0.0623,1.1323 0,1.69327 0.0514,0.46259 0.28092,0.89277 0.33865,1.35462 0.098,0.78409 -0.11175,1.58833 0,2.37058 0.0658,0.46076 0.27283,0.89386 0.33866,1.35462 0.0479,0.33525 0,0.67731 0,1.01596 0,0.45154 0,0.90308 0,1.35462 0,1.58039 0,3.16077 0,4.74116 0,1.35462 0,2.70924 0,4.06386 0,0.21644 0.0488,1.93423 0,2.03192 -0.0505,0.10097 -0.22578,0 -0.33866,0 -0.22577,0 -0.46312,0.0714 -0.67731,0 -0.23946,-0.0798 -0.43243,-0.27743 -0.67731,-0.33865 -0.66615,-0.16654 -1.36578,-0.17212 -2.03192,-0.33866 -3.29905,-0.82476 -1.04968,-0.88653 -5.41848,-1.35461 -4.49058,-0.48114 -9.03938,-0.33866 -13.546175,-0.33866 -1.241735,0 -2.484747,0.0564 -3.725201,0 -1.245566,-0.0566 -2.479757,-0.27935 -3.725199,-0.33865 -1.127572,-0.0537 -2.259435,0.0626 -3.386545,0 -0.908706,-0.0505 -1.801442,-0.27381 -2.709235,-0.33866 -0.67559,-0.0482 -1.354619,0 -2.031928,0 -1.241732,0 -2.483467,0 -3.725199,0 -1.806157,0 -3.612316,0 -5.418473,0 -0.67731,0 -1.354617,0 -2.031926,0 -0.564425,0 -1.13165,-0.0562 -1.693273,0 -0.572746,0.0573 -1.12119,0.27509 -1.693272,0.33866 -0.448778,0.0499 -0.906566,-0.056 -1.354619,0 -0.461841,0.0577 -0.893861,0.27283 -1.354616,0.33865 -0.558753,0.0798 -1.128851,0 -1.693273,0 -0.225772,0 -0.463127,0.0714 -0.677309,0 -1.572223,-0.78611 0.194926,-0.0287 -1.354619,-0.33865 -1.76175,-0.35235 -0.338654,-0.22577 -1.693273,-0.67731 -0.321276,-0.1071 -0.687419,0.0821 -1.015963,0 -0.244882,-0.0612 -0.437843,-0.25884 -0.677309,-0.33866 -0.20193,-0.0673 -1.703817,0 -2.031926,0 -0.112885,0 -0.237689,0.0505 -0.338656,0 -0.142788,-0.0714 -0.187204,-0.28817 -0.338654,-0.33865 -0.214183,-0.0714 -0.458279,0.0548 -0.677309,0 -1.062485,-0.26562 -0.292135,-0.41169 -1.354619,-0.67731 -0.219028,-0.0548 -0.475375,0.10097 -0.677307,0 -0.100968,-0.0505 0.07982,-0.25883 0,-0.33865 -0.104865,-0.10487 -1.58841,0.10486 -1.693273,0 -0.287803,-0.28781 -0.45154,-0.67731 -0.677309,-1.01597 z"
       id="path245"
       inkscape:export-filename="toulen.svg"
       inkscape:export-xdpi="96"
       inkscape:export-ydpi="96" /><path
       style="fill:none;stroke:#000000;stroke-width:0.264583px;stroke-linecap:butt;stroke-linejoin:miter;stroke-opacity:1"
       d="m 51.644811,166.44869 c 0.169328,-0.22577 0.273167,-0.52077 0.507982,-0.67731 0.918334,-0.61223 4.298103,-1.56561 4.741164,-1.69327 2.249971,-0.6483 4.501491,-1.29471 6.77309,-1.8626 1.342387,-0.3356 2.716559,-0.53132 4.063854,-0.84664 1.306319,-0.30574 2.600928,-0.66023 3.894526,-1.01597 1.304822,-0.35882 3.857826,-1.16323 5.249146,-1.52394 0.728935,-0.18898 1.473644,-0.31395 2.201254,-0.50798 0.96639,-0.25771 1.91806,-0.56778 2.878563,-0.84664 0.789226,-0.22913 1.580385,-0.45154 2.370579,-0.67731 0.790194,-0.22577 1.578359,-0.45876 2.370582,-0.67731 0.844672,-0.23301 1.69979,-0.42838 2.53991,-0.6773 4.980895,-1.47582 -0.650861,0.10406 3.725199,-1.35462 1.817357,-0.60579 1.595755,-0.36974 3.217217,-0.84664 0.513701,-0.15109 1.01968,-0.32789 1.523947,-0.50798 1.277662,-0.45631 0.411453,-0.18287 1.523944,-0.67731 0.277754,-0.12345 0.568169,-0.21683 0.846642,-0.33865 0.62481,-0.27336 1.23778,-0.57328 1.86259,-0.84664 0.27847,-0.12183 0.56993,-0.21288 0.84664,-0.33865 0.34469,-0.15668 0.67128,-0.35131 1.01596,-0.50799 0.27671,-0.12577 0.56443,-0.22577 0.84664,-0.33865 0.28221,-0.11289 0.56098,-0.23478 0.84664,-0.33865 0.33548,-0.122 0.69667,-0.17902 1.01596,-0.33866 0.36404,-0.18202 0.6576,-0.48434 1.01597,-0.67731 0.58554,-0.31529 1.40781,-0.56925 2.03192,-0.84664 0.23066,-0.10251 0.4453,-0.23922 0.67731,-0.33865 0.16406,-0.0703 0.34834,-0.0895 0.50798,-0.16933 0.18202,-0.091 0.32093,-0.25849 0.50798,-0.33865 0.21391,-0.0917 0.45654,-0.0957 0.67731,-0.16933 0.11973,-0.0399 0.22577,-0.11288 0.33866,-0.16933 0.11288,-0.0564 0.23364,-0.0993 0.33865,-0.16932 0.0664,-0.0443 0.0936,-0.14409 0.16933,-0.16933 0.10709,-0.0357 0.23156,0.0357 0.33865,0 0.0757,-0.0252 0.0952,-0.13968 0.16933,-0.16933 0.22577,-0.0564 0.45154,-0.11288 0.67731,-0.16933 0.0564,-0.0564 0.0979,-0.13362 0.16933,-0.16932 0.0505,-0.0252 0.11578,0.0179 0.16932,0 0.11974,-0.0399 0.21622,-0.13872 0.33866,-0.16933 0.10951,-0.0274 0.23156,0.0357 0.33865,0 0.0757,-0.0252 0.0936,-0.14409 0.16933,-0.16933 0.10709,-0.0357 0.23156,0.0357 0.33865,0 0.0757,-0.0252 0.0979,-0.13363 0.16933,-0.16932 0.10097,-0.0505 0.23156,0.0357 0.33866,0 0.11973,-0.0399 0.21892,-0.12942 0.33865,-0.16933 0.0536,-0.0179 0.11884,0.0252 0.16933,0 0.0714,-0.0357 0.0979,-0.13363 0.16932,-0.16933 0.10097,-0.0505 0.25884,0.0798 0.33866,0 0.0399,-0.0399 -0.0399,-0.12941 0,-0.16933 0.0399,-0.0399 0.11288,0 0.16933,0 0.0564,0 0.11288,0 0.16932,0"
       id="path247" /><path
       style="fill:none;stroke:#000000;stroke-width:0.264583px;stroke-linecap:butt;stroke-linejoin:miter;stroke-opacity:1"
       d="m 51.475483,189.30786 c 0.792147,-0.28362 1.445387,-0.83435 2.201254,-1.18529 2.013733,-0.93494 7.401409,-3.08997 8.974347,-3.72519 0.402531,-0.16257 4.65324,-1.87776 5.587798,-2.20126 4.082992,-1.41334 0.357564,0.0547 4.23318,-1.35462 0.571304,-0.20774 1.1195,-0.47649 1.693273,-0.67731 0.556194,-0.19466 1.144066,-0.2944 1.693272,-0.50798 0.470511,-0.18297 0.887807,-0.48509 1.354619,-0.67731 1.77002,-0.72883 1.174388,-0.31408 2.878564,-0.84663 1.255585,-0.39237 1.628084,-0.67039 2.878563,-1.18529 0.601832,-0.24782 1.701776,-0.64085 2.370582,-0.84664 0.780143,-0.24004 1.994342,-0.52891 2.709235,-0.84664 0.531024,-0.23601 1.004184,-0.58675 1.523945,-0.84663 0.609997,-0.305 1.241734,-0.56443 1.8626,-0.84664 0.620866,-0.28221 1.235747,-0.57798 1.862601,-0.84663 1.117502,-0.47893 2.257695,-0.90308 3.386545,-1.35462 0.564422,-0.22577 1.122849,-0.46716 1.693272,-0.67731 2.407897,-0.88712 0.881888,-0.14956 3.894527,-1.35462 0.35155,-0.14062 0.67127,-0.3513 1.01596,-0.50798 0.27671,-0.12578 0.56443,-0.22577 0.84664,-0.33866 0.28221,-0.11288 0.56098,-0.23478 0.84664,-0.33865 0.33548,-0.12199 0.68048,-0.21666 1.01596,-0.33866 0.28565,-0.10387 0.55828,-0.24253 0.84664,-0.33865 0.44155,-0.14718 0.90307,-0.22577 1.35461,-0.33866 0.22577,-0.0564 0.45941,-0.0876 0.67731,-0.16932 0.23635,-0.0886 0.4453,-0.23922 0.67731,-0.33866 0.4426,-0.18968 0.70793,-0.19544 1.18529,-0.33865 2.41437,-0.80479 -0.0981,0.004 1.69327,-0.50798 0.17162,-0.049 0.34226,-0.10304 0.50799,-0.16933 0.23436,-0.0937 0.43242,-0.27743 0.67731,-0.33865 0.10951,-0.0274 0.22576,0 0.33865,0 0.11288,-0.0564 0.21621,-0.13872 0.33865,-0.16933 0.10952,-0.0274 0.23157,0.0357 0.33866,0 0.23946,-0.0798 0.43784,-0.25884 0.67731,-0.33865 0.10709,-0.0357 0.22796,0.0221 0.33865,0 0.34004,0.0389 0.55176,-0.26494 0.84664,-0.33866 0.10951,-0.0274 0.23156,0.0357 0.33865,0 0.0757,-0.0252 0.0979,-0.13363 0.16933,-0.16933 0.0505,-0.0252 0.11884,0.0252 0.16933,0 0.0714,-0.0357 0.0979,-0.13363 0.16932,-0.16932 0.15965,-0.0798 0.33483,-0.12604 0.50799,-0.16933 0.0547,-0.0137 0.12941,0.0399 0.16932,0 0.22577,-0.22577 -0.28221,-0.16933 0.16933,-0.16933"
       id="path249" /><path
       style="fill:none;stroke:#000000;stroke-width:0.264583px;stroke-linecap:butt;stroke-linejoin:miter;stroke-opacity:1"
       d="m 78.906499,178.30159 c 0,1.35462 0,2.70924 0,4.06386 0,0.67731 0.02942,1.35526 0,2.03193 -0.220427,5.06984 -0.169328,-1.15562 -0.169328,3.55587 0,0.90308 0,1.80616 0,2.70923 0,0.33866 0,0.67731 0,1.01597 0,0.28221 0.02808,0.56582 0,0.84663 -0.02864,0.28638 -0.14327,0.56002 -0.169326,0.84664 -0.03066,0.33726 0.02598,0.67831 0,1.01596 -0.03061,0.39794 -0.138718,0.78736 -0.169328,1.18529 -0.02598,0.33766 0.0337,0.67899 0,1.01597 -0.02315,0.23156 -0.140462,0.44638 -0.169328,0.67731 -0.028,0.22402 0,0.45154 0,0.6773 0,0.3951 0,0.7902 0,1.1853 0,1.35461 0,2.70923 0,4.06385 0,0.33865 0,0.67731 0,1.01596 0,0.16933 0,0.33866 0,0.50798 0,0.0564 0.02524,0.11885 0,0.16933 -0.0357,0.0714 -0.13363,0.0979 -0.169328,0.16933 -0.02524,0.0505 0,0.11289 0,0.16933 0,0.0564 0,0.11288 0,0.16932 0,0.28222 0,0.56443 0,0.84664 0,0.11289 0.05049,0.23769 0,0.33866 -0.02524,0.0505 -0.129416,-0.0399 -0.169325,0 -0.03991,0.0399 0,0.11288 0,0.16932 0,0.45154 0,0.90308 0,1.35462 0,0.0564 0,0.11288 0,0.16933 0,0.0564 0.03991,0.12941 0,0.16933 -0.225772,0.22576 -0.169328,-0.28222 -0.169328,0.16932"
       id="path251" /><path
       style="fill:none;stroke:#000000;stroke-width:0.264583px;stroke-linecap:butt;stroke-linejoin:miter;stroke-opacity:1"
       d="m 96.008551,171.52851 c 0,1.69327 0,3.38654 0,5.07981 0,1.12885 0.02821,2.25805 0,3.38655 -0.02825,1.1299 -0.136099,2.25677 -0.169328,3.38654 -0.02323,0.78985 0.0329,1.58108 0,2.37058 -0.0236,0.56675 -0.112884,1.12885 -0.169328,1.69328 -0.112884,1.12884 -0.21989,2.25829 -0.338653,3.38654 -0.107011,1.0166 -0.274892,2.02767 -0.338654,3.04789 -0.02463,0.39433 0,0.79019 0,1.18529 0,1.12885 0,2.2577 0,3.38655 0,0.39509 0,0.79019 0,1.18529 0,0.28221 0.03117,0.56615 0,0.84663 -0.02569,0.2313 -0.136416,0.44693 -0.169328,0.67731 -0.02394,0.16763 0.02784,0.34096 0,0.50799 -0.02934,0.17605 -0.144087,0.33128 -0.169328,0.50798 -0.03193,0.2235 0,0.45154 0,0.6773 0,0.3951 0,0.7902 0,1.1853 0,0.11126 0.03185,0.41244 0,0.50798 -0.03991,0.11973 -0.138716,0.21621 -0.169328,0.33865 -0.02738,0.10952 0,0.22577 0,0.33866 0,0.16932 0,0.33865 0,0.50798 0,0.33865 0,0.67731 0,1.01596 0,0.84664 0,1.69328 0,2.53991"
       id="path253" /><path
       style="fill:none;stroke:#000000;stroke-width:0.264583px;stroke-linecap:butt;stroke-linejoin:miter;stroke-opacity:1"
       d="m 51.475483,196.75826 c 2.312784,-1.15639 0.459219,-0.3224 3.555873,-1.35461 8.481433,-2.82715 -3.260952,0.85913 6.265109,-1.8626 1.71619,-0.49034 3.363626,-1.20294 5.079817,-1.69328 0.724061,-0.20687 1.472605,-0.3179 2.201254,-0.50798 1.01483,-0.26474 2.216758,-0.68247 3.217217,-1.01596 0.507984,-0.16933 1.026784,-0.30912 1.523947,-0.50798 0.234362,-0.0937 0.460862,-0.20879 0.677309,-0.33866 0.174504,-0.1047 0.317432,-0.26719 0.507982,-0.33865 1.427199,-0.28544 0.297116,0.0178 1.523944,-0.50798 0.115721,-0.0496 0.710372,-0.20239 0.846638,-0.33866 0.03991,-0.0399 0,-0.11288 0,-0.16933 0.05644,0 0.129415,0.0399 0.169325,0 0.03991,-0.0399 -0.05048,-0.14408 0,-0.16932 0.100968,-0.0505 0.237689,0.0505 0.338656,0 0.05048,-0.0252 -0.03991,-0.12942 0,-0.16933 0.03991,-0.0399 0.129416,0.0399 0.169326,0 0.03991,-0.0399 -0.03991,-0.12942 0,-0.16933 0.03991,-0.0399 0.118845,0.0252 0.169328,0 0.259336,-0.12966 0.132416,-0.30174 0.338653,-0.50798 0.03991,-0.0399 0.118846,0.0252 0.169328,0 0.704699,-0.35235 -0.181017,0.0117 0.169328,-0.33865 0.03991,-0.0399 0.118843,0.0252 0.169328,0 0.07139,-0.0357 0.112885,-0.11289 0.169326,-0.16933"
       id="path255" /><path
       style="fill:none;stroke:#000000;stroke-width:0.264583px;stroke-linecap:butt;stroke-linejoin:miter;stroke-opacity:1"
       d="m 96.008551,181.68814 c 0.95281,-0.46803 1.881839,-0.98085 2.878564,-1.35462 0.501367,-0.18801 1.015963,-0.33865 1.523945,-0.50798 0.84664,-0.28221 1.69327,-0.56443 2.53991,-0.84664 0.67731,-0.22577 1.34809,-0.47216 2.03193,-0.67731 1.04868,-0.26217 1.52911,-0.36629 2.53991,-0.6773 0.942,-0.28985 0.99301,-0.32948 1.86259,-0.67731 0.28222,-0.11289 0.55551,-0.25132 0.84664,-0.33866 1.8554,-0.37108 -0.0784,0.0929 1.52394,-0.50798 0.21791,-0.0817 0.46341,-0.0776 0.67731,-0.16933 0.18705,-0.0802 0.31744,-0.2672 0.50799,-0.33865 0.26947,-0.10106 0.5736,-0.0783 0.84663,-0.16933 0.23947,-0.0798 0.44096,-0.25002 0.67731,-0.33865 0.2179,-0.0817 0.45653,-0.0957 0.67731,-0.16933 0.11973,-0.0399 0.22147,-0.12245 0.33865,-0.16933 0.16572,-0.0663 0.34227,-0.10304 0.50799,-0.16933 0.11718,-0.0469 0.22147,-0.12245 0.33865,-0.16932 0.33144,-0.13258 0.68452,-0.20608 1.01596,-0.33866 0.11719,-0.0469 0.21893,-0.12941 0.33866,-0.16932 0.10709,-0.0357 0.25883,0.0798 0.33865,0 0.0399,-0.0399 -0.0399,-0.12942 0,-0.16933 0.0399,-0.0399 0.11885,0.0252 0.16933,0 0.0714,-0.0357 0.0979,-0.13363 0.16933,-0.16933 0.10096,-0.0505 0.25883,0.0798 0.33865,0 0.0399,-0.0399 -0.0399,-0.12941 0,-0.16933 0.0399,-0.0399 0.11885,0.0252 0.16933,0 0.41848,-0.20923 -0.0584,-0.16932 0.33865,-0.16932"
       id="path257" /><path
       style="fill:none;stroke:#000000;stroke-width:0.264583px;stroke-linecap:butt;stroke-linejoin:miter;stroke-opacity:1"
       d="m 50.798174,146.46807 c 9.76454,0 19.529078,0 29.293616,0 2.709235,0 5.41847,0 8.127708,0 0.790192,0 1.580799,0.0255 2.37058,0 3.314906,-0.10693 2.544463,-0.19338 5.926455,-0.50798 1.409483,-0.13111 2.822241,-0.22426 4.233177,-0.33866 8.21662,-0.68471 -3.732239,0.25439 3.89453,-0.16932 0.98732,-0.0549 1.25429,-0.24396 2.20126,-0.33866 0.22464,-0.0225 0.45153,0 0.67731,0 0.22576,-0.0564 0.44692,-0.13641 0.6773,-0.16932 0.16763,-0.024 0.33866,0 0.50798,0 0.11289,0 0.22915,0.0274 0.33866,0 0.12244,-0.0306 0.21621,-0.13872 0.33865,-0.16933 0.10952,-0.0274 0.22914,0.0274 0.33866,0 0.12244,-0.0306 0.21489,-0.14458 0.33865,-0.16933 0.27674,-0.0553 0.56443,0 0.84664,0 0.11288,0 0.22914,0.0274 0.33865,0 0.12244,-0.0306 0.21892,-0.12941 0.33866,-0.16933 0.0535,-0.0179 0.11884,0.0252 0.16932,0 0.0714,-0.0357 0.0979,-0.13362 0.16933,-0.16932 0.0972,-0.0486 0.70251,0.036 0.84664,0 0.12244,-0.0306 0.21621,-0.13872 0.33865,-0.16933 0.12877,-0.0322 0.70485,0 0.84664,0 0.0564,0 0.11288,0 0.16933,0 0.0564,0 0.11884,0.0252 0.16932,0 0.0714,-0.0357 0.0936,-0.14408 0.16933,-0.16933 0.16064,-0.0535 0.33866,0 0.50798,0 0.33866,0 0.67731,0 1.01597,0 0.0564,0 0.12941,-0.0399 0.16932,0 0.0399,0.0399 -0.0399,0.12942 0,0.16933 0.0408,0.0408 0.63657,-0.0408 0.67731,0 0.0399,0.0399 0,0.11288 0,0.16933 0,0.0564 0,0.11288 0,0.16932"
       id="path259" /><path
       style="fill:#ff1800;fill-opacity:1;stroke:#000000;stroke-width:0.264583px;stroke-linecap:butt;stroke-linejoin:miter;stroke-opacity:1"
       d="m 79.160491,131.05929 c 0,-0.9313 0,-1.8626 0,-2.7939 0,-0.1411 0,-0.28221 0,-0.42332 0,-0.1411 0.01405,-0.28291 0,-0.42332 -0.01431,-0.14318 -0.06877,-0.28029 -0.08466,-0.42331 -0.02183,-0.19634 0,-0.3951 0,-0.59265 0,-0.3951 0,-0.79019 0,-1.18529 0,-0.33865 0,-0.67731 0,-1.01596 0,-0.0282 0,-0.0564 0,-0.0847 0,-0.0282 -0.01995,-0.0647 0,-0.0847 0.03991,-0.0399 0.115781,0.0179 0.169325,0 0.05987,-0.02 0.108109,-0.0694 0.169328,-0.0847 0.05476,-0.0137 0.112885,0 0.169328,0 0.112885,0 0.226102,0.009 0.338654,0 0.524261,-0.0403 0.921366,-0.11481 1.439283,-0.16933 0.309999,-0.0326 0.619855,-0.0717 0.931299,-0.0847 0.366556,-0.0153 0.73375,0 1.100627,0 0.338653,0 0.677309,0 1.015962,0 0.874858,0 1.749716,0 2.624575,0 0.366873,0 0.734208,-0.0183 1.100626,0 0.191027,0.01 0.887476,0.13735 1.100627,0.16932 0.394693,0.0592 0.788813,0.12358 1.185291,0.16933 0.338654,0.0282 0.677307,0.0564 1.015963,0.0847 0.141105,0.0282 0.28053,0.0668 0.423318,0.0847 0.194508,0.0243 0.398137,-0.0243 0.592645,0 0.115462,0.0144 0.223465,0.0682 0.338654,0.0847 0.13304,0.019 0.439637,0 0.592645,0 0.05644,0 0.112887,0 0.169328,0 0.02822,0 0.05942,0.0126 0.08466,0 0.387472,-0.19373 -0.359262,0.0351 0.253992,-0.16933 0.02677,-0.009 0.05789,0.009 0.08466,0 0.05987,-0.02 0.109461,-0.0647 0.169328,-0.0847 0.02677,-0.009 0.05942,0.0126 0.08466,0 0.0357,-0.0179 0.04897,-0.0668 0.08466,-0.0847 0.05048,-0.0252 0.118843,0.0252 0.169325,0 0.0357,-0.0179 0.04897,-0.0668 0.08466,-0.0847 0.02524,-0.0126 0.05644,0 0.08466,0 0.05644,0 0.112885,0 0.169328,0 0.169328,0 0.338654,0 0.507982,0 0.70553,0 1.41106,0 2.11659,0 0.395097,0 0.790194,0 1.185291,0 0.02822,0 0.05644,0 0.08466,0 0.02822,0 0.06471,-0.02 0.08466,0 0.01995,0.0199 0.0055,0.057 0,0.0847 -0.11747,0.58734 -0.01302,0.11069 -0.253992,0.59264 -0.03991,0.0798 -0.05333,0.17043 -0.08466,0.25399 -0.05336,0.1423 -0.121267,0.27914 -0.169326,0.42332 -0.0368,0.11039 -0.05644,0.22577 -0.08466,0.33866 -0.08466,0.33865 -0.169328,0.67731 -0.253992,1.01596 -0.02822,0.11288 -0.04787,0.22827 -0.08466,0.33865 -0.04806,0.14418 -0.125659,0.27775 -0.169328,0.42332 -0.04135,0.13783 -0.05345,0.28285 -0.08466,0.42332 -0.02524,0.11359 -0.06821,0.22346 -0.08466,0.33865 -0.01199,0.0838 0.02326,0.17259 0,0.254 -0.03467,0.12135 -0.129416,0.21892 -0.169328,0.33865 -0.01786,0.0536 0.01106,0.11398 0,0.16933 -0.01749,0.0875 -0.06716,0.16648 -0.08466,0.25399 -0.01106,0.0554 0.01106,0.11398 0,0.16932 -0.01751,0.0875 -0.06302,0.16742 -0.08466,0.254 -0.03015,0.1206 0.03785,0.30975 0,0.42331 -0.01262,0.0379 -0.06682,0.049 -0.08466,0.0847 -0.01262,0.0252 0,0.0564 0,0.0847 0,0.0282 0,0.0564 0,0.0847 0,0.16932 0,0.33865 0,0.50798"
       id="path4100" /><path
       style="fill:none;stroke:#000000;stroke-width:0.264583px;stroke-linecap:butt;stroke-linejoin:miter;stroke-opacity:1"
       d="m 81.95439,123.86288 c 0,0.33866 0,0.67731 0,1.01597 0,0.22577 0,0.45153 0,0.67731 0,0.16932 -0.01405,0.33923 0,0.50798 0.01426,0.17107 0.06758,0.33717 0.08466,0.50798 0.01124,0.11232 -0.01595,0.2269 0,0.33865 0.01262,0.0884 0.06302,0.16742 0.08466,0.254 0.04233,0.16932 -0.08466,0 0,0.25398 0.01262,0.0379 0.07204,0.0468 0.08466,0.0847 0.01921,0.0576 -0.02244,0.37843 0,0.42332 0.01786,0.0357 0.07204,0.0468 0.08466,0.0847 0.01786,0.0536 0,0.11289 0,0.16933 0,0.0886 -0.01722,0.43913 0,0.50798 0.01529,0.0612 0.06936,0.10811 0.08466,0.16933 0.01368,0.0548 0,0.11288 0,0.16933 0,0.0847 0,0.16932 0,0.25398 0,0.22577 0,0.45155 0,0.67731 0,0.19755 0,0.3951 0,0.59265 0,0.0282 0.01995,0.0647 0,0.0847 -0.01995,0.02 -0.06471,-0.0199 -0.08466,0 -0.03991,0.0399 0.02524,0.11885 0,0.16933 -0.01786,0.0357 -0.06682,0.049 -0.08466,0.0847 -0.01262,0.0252 0.01262,0.0594 0,0.0847 -0.01786,0.0357 -0.06682,0.049 -0.08466,0.0847 -0.01262,0.0252 0,0.0564 0,0.0847 0,0.0282 0,0.0564 0,0.0847"
       id="path4861" /><path
       style="fill:none;stroke:#000000;stroke-width:0.264583px;stroke-linecap:butt;stroke-linejoin:miter;stroke-opacity:1"
       d="m 84.917615,123.77822 c -0.342776,0.91407 -0.204399,0.3973 -0.338653,1.26996 -0.02612,0.16966 -0.06912,0.33702 -0.08467,0.50798 -0.01278,0.14052 0,0.28221 0,0.42331 0,0.16933 0,0.33866 0,0.50799 0,0.31043 0,0.62086 0,0.93129 0,0.0847 -0.01392,0.17049 0,0.254 0.01469,0.088 0.0653,0.16687 0.08467,0.25399 0.03724,0.16757 0.04303,0.34144 0.08466,0.50798 0.01529,0.0612 0.05644,0.11288 0.08466,0.16933 0.02822,0.0847 0.06716,0.16648 0.08466,0.25399 0.01106,0.0553 -0.01106,0.11398 0,0.16933 0.01749,0.0875 0.06999,0.16596 0.08466,0.25398 0.01392,0.0835 -0.01659,0.17098 0,0.254 0.01238,0.0619 0.06936,0.1081 0.08466,0.16932 0.01368,0.0548 -0.01786,0.11578 0,0.16933 0.01262,0.0379 0.06682,0.049 0.08466,0.0847 0.02244,0.0449 -0.01921,0.36572 0,0.42332 0.01262,0.0379 0.06681,0.049 0.08466,0.0847 0.03386,0.0677 -0.03387,0.18626 0,0.25399 0.01786,0.0357 0.07204,0.0468 0.08466,0.0847 0.01291,0.0387 -0.01884,0.30098 0,0.33866 0.104619,0.20923 0.08466,-0.0292 0.08466,0.16932"
       id="path4863" /><path
       style="fill:none;stroke:#000000;stroke-width:0.264583px;stroke-linecap:butt;stroke-linejoin:miter;stroke-opacity:1"
       d="m 87.203533,123.77822 c 0,0.93668 0.01595,-0.47749 -0.08466,0.9313 -0.01408,0.19704 0,0.3951 0,0.59264 0,0.22577 0,0.45155 0,0.67731 0,0.254 0,0.50799 0,0.76198 0,0.25399 -0.01691,0.50854 0,0.76197 0.01143,0.17128 0.06571,0.33737 0.08466,0.50798 0.0093,0.0841 0,0.16933 0,0.25399 0,0.11289 0,0.22577 0,0.33866 0,0.11288 -0.01246,0.22646 0,0.33865 0.0159,0.14302 0.06877,0.2803 0.08466,0.42332 0.01871,0.16829 0,0.33865 0,0.50798 0,0.36688 0,0.73375 0,1.10063"
       id="path4865" /><path
       style="fill:none;stroke:#000000;stroke-width:0.264583px;stroke-linecap:butt;stroke-linejoin:miter;stroke-opacity:1"
       d="m 90.505416,124.03221 c 0,0.42332 0,0.84664 0,1.26995 0,0.14111 0.01558,0.28308 0,0.42332 -0.01286,0.11565 -0.06185,0.22456 -0.08466,0.33866 -0.03366,0.16833 -0.04743,0.3404 -0.08466,0.50798 -0.01937,0.0871 -0.06999,0.16596 -0.08466,0.25399 0,0.64587 0.03786,-0.0668 -0.08466,0.42332 -0.01368,0.0547 0,0.11288 0,0.16932 0,0.0847 0.0105,0.16999 0,0.254 0.04604,0.25129 -0.131069,0.44775 -0.169328,0.67731 -0.01392,0.0835 0,0.16932 0,0.25399 0,0.0847 0,0.16932 0,0.25399 0,0.0847 0,0.16933 0,0.25399 0,0.11288 -0.01595,0.2269 0,0.33865 0.01262,0.0883 0.06999,0.16597 0.08466,0.25399 0.0048,0.0291 -0.01553,0.46135 0,0.50799 0.01262,0.0379 0.06682,0.049 0.08466,0.0847 0.01262,0.0252 0,0.0564 0,0.0847 0,0.0282 0,0.0565 0,0.0847 0,0.16932 0,0.33865 0,0.50798"
       id="path4867" /><path
       style="fill:none;stroke:#000000;stroke-width:0.264583px;stroke-linecap:butt;stroke-linejoin:miter;stroke-opacity:1"
       d="m 93.468641,124.03221 c 0,0.33866 0,0.67731 0,1.01597 0,1.67321 -0.0245,-0.58588 0.08466,1.26995 0.01492,0.25355 0,0.50798 0,0.76197 0,0.33865 0,0.67731 0,1.01596 0,0.19755 0,0.3951 0,0.59265 0,0.11288 0.014,0.22664 0,0.33866 -0.01445,0.11545 -0.05942,0.22506 -0.08466,0.33865 -0.03122,0.14047 -0.04976,0.28371 -0.08466,0.42332 -0.02164,0.0866 -0.06716,0.16648 -0.08466,0.25399 -0.01106,0.0553 0,0.11288 0,0.16933 0,0.11288 0,0.22577 0,0.33865 0,0.22577 0,0.45154 0,0.67731 0,0.0282 0,0.0564 0,0.0847 0,0.0282 -0.01995,0.0647 0,0.0847 0.01995,0.0199 0.06471,0.0199 0.08466,0 0.01995,-0.0199 -0.01995,-0.0647 0,-0.0847 0.01995,-0.0199 0.05942,0.0126 0.08466,0 0.0357,-0.0179 0.05644,-0.0564 0.08466,-0.0847 0.02822,-0.0282 0.06682,-0.049 0.08466,-0.0847 0.01262,-0.0252 -0.01995,-0.0647 0,-0.0847 0.01995,-0.0199 0.06471,0.0199 0.08466,0 0.01995,-0.0199 0,-0.0564 0,-0.0847 0,-0.0282 0,-0.0564 0,-0.0847"
       id="path4869" /><path
       style="fill:none;stroke:#000000;stroke-width:0.264583px;stroke-linecap:butt;stroke-linejoin:miter;stroke-opacity:1"
       d="m 96.008551,123.94755 c 0,2.25339 -0.03117,-0.47631 0.08466,1.60861 0.02506,0.45084 0,0.90308 0,1.35461 0,0.19755 0,0.3951 0,0.59265 0,0.16933 0.01532,0.33935 0,0.50798 -0.01302,0.14331 -0.06682,0.28053 -0.08466,0.42332 -0.0195,0.15597 0,0.42378 0,0.59265 0,0.0282 0,0.0564 0,0.0847 0,0.0282 0.01262,0.0594 0,0.0847 -0.107545,0.21509 -0.101187,-0.0867 -0.169328,0.25399 -0.01659,0.083 0.01662,0.17097 0,0.25399 -0.01238,0.0619 -0.06471,0.10947 -0.08466,0.16933 -0.0227,0.0682 0.02705,0.28455 0,0.33866 -0.01786,0.0357 -0.06682,0.049 -0.08466,0.0847 -0.01262,0.0252 0,0.0564 0,0.0847 0,0.0282 0,0.0565 0,0.0847 0,0.16932 0,0.33865 0,0.50798"
       id="path4871" /><path
       style="fill:#8f793f;fill-opacity:1;stroke:#000000;stroke-width:0"
       d="m 191.87361,529.94995 v -22.62912 l 9.2769,0.0824 c 5.1023,0.0453 12.94242,-0.56199 17.42249,-1.34959 11.29771,-1.98614 55.54792,-7.55993 69.23741,-8.7212 6.22231,-0.52784 23.61824,-0.91388 38.65761,-0.85787 15.03937,0.056 27.86866,-0.23253 28.50953,-0.64119 0.64086,-0.40866 21.02005,-0.89309 45.28708,-1.07652 l 44.12188,-0.33351 -0.0322,2.58603 c -0.0177,1.42232 -0.62228,5.02971 -1.34346,8.01642 -0.89325,3.6994 -1.31573,10.65689 -1.32536,21.8268 l -0.0141,16.39642 -8.82438,0.56486 c -4.8534,0.31067 -10.86077,0.95135 -13.34969,1.42374 -8.62541,1.63705 -25.43514,3.59013 -44.80068,5.20526 -16.46355,1.3731 -32.03228,1.66242 -101.14092,1.87955 l -81.68204,0.25663 z"
       id="path7825"
       transform="scale(0.26458333)" /><path
       style="fill:#d6944b;fill-opacity:1;stroke:#000000;stroke-width:0"
       d="m 194.95578,620.66917 c -0.41445,-3.37183 -0.85729,-10.20338 -0.98409,-15.18124 -0.1268,-4.97785 -0.48036,-18.51339 -0.7857,-30.07898 l -0.55514,-21.02835 80.39835,-0.24066 c 68.25678,-0.20432 83.337,-0.48751 99.85724,-1.87522 25.70298,-2.15906 36.78392,-3.30412 41.18042,-4.25544 10.56629,-2.28634 22.76662,-3.72426 24.84742,-2.9285 2.01575,0.77089 1.63967,1.03686 -4.07279,2.88037 -3.46148,1.11708 -7.92272,2.7506 -9.91386,3.63004 -1.99114,0.87944 -5.86029,2.56887 -8.59811,3.75428 -2.73782,1.18542 -7.21789,3.32314 -9.95571,4.7505 -2.73781,1.42736 -6.41153,3.11142 -8.16381,3.74236 -1.75229,0.63094 -9.71851,4.03709 -17.70271,7.56922 -7.98422,3.53213 -17.16576,7.0364 -20.40342,7.78726 -6.12273,1.41996 -12.6151,3.49252 -15.72695,5.02051 -1.64999,0.81019 -20.05433,6.04592 -68.33235,19.43945 -9.70681,2.69291 -21.72154,5.74767 -26.69939,6.78835 -18.23871,3.81303 -49.60128,13.00824 -52.46002,15.38078 -0.9351,0.77607 -1.33011,-0.27928 -1.92938,-5.15473 z"
       id="path10518"
       transform="scale(0.26458333)" /><path
       style="fill:#22221c;fill-opacity:1;stroke:#000000;stroke-width:0"
       d="m 195.49386,671.55762 c 0,-39.69772 0.0947,-42.18021 1.66957,-43.75506 2.66411,-2.6641 31.88251,-11.39451 53.53935,-15.99746 5.72453,-1.21669 18.55381,-4.49011 28.50952,-7.27427 48.10706,-13.45334 63.68231,-17.93716 67.43487,-19.41319 2.24422,-0.88274 8.3534,-2.84119 13.57597,-4.35211 5.22257,-1.51091 15.40112,-5.36738 22.61901,-8.56992 7.21788,-3.20254 14.14162,-6.12615 15.38609,-6.4969 1.24446,-0.37075 3.89177,-1.60142 5.88291,-2.73481 4.43235,-2.52297 26.33591,-11.90524 32.68641,-14.00104 l 4.62941,-1.5278 0.50985,11.83021 c 0.28041,6.50663 0.94631,13.25301 1.47977,14.99197 0.53345,1.73897 0.99134,9.27363 1.01754,16.74369 0.0262,7.47007 0.57603,16.53402 1.22189,20.14212 l 1.17428,6.56019 -4.61588,2.14386 c -2.53874,1.17912 -5.83773,2.4232 -7.33108,2.76461 -5.60834,1.28219 -40.0208,12.62851 -44.80068,14.77148 -2.73782,1.22745 -8.23608,3.36248 -12.21837,4.7445 -11.14952,3.86937 -25.17543,9.63198 -35.70157,14.66817 -5.2534,2.51347 -14.43898,6.30658 -20.41241,8.42913 -5.97342,2.12256 -13.91536,4.94535 -17.64875,6.27286 -3.73339,1.32751 -8.41709,2.97754 -10.40824,3.66673 -1.99114,0.68918 -7.4894,2.72685 -12.21836,4.52814 -4.72896,1.8013 -13.42597,4.88772 -19.32667,6.85873 -12.3732,4.13301 -50.55295,19.45649 -59.81213,24.00565 -3.45462,1.6973 -6.40739,3.086 -6.56171,3.086 -0.15432,0 -0.28059,-18.93847 -0.28059,-42.08548 z"
       id="path22347"
       transform="scale(0.26458333)" /><path
       style="fill:#22221c;fill-opacity:1;stroke:#000000;stroke-width:0"
       d="m 337.13641,788.71687 c -6.969,-0.3507 -19.34215,-0.68734 -27.4959,-0.74808 l -14.825,-0.11043 0.61983,-4.29905 c 0.91485,-6.34521 2.34352,-45.37379 2.89892,-79.19312 0.40961,-24.94138 0.693,-29.64085 1.78743,-29.64085 0.71536,0 3.83805,-1.05776 6.93932,-2.35059 3.10126,-1.29282 10.52601,-4.08857 16.49943,-6.21276 5.97343,-2.1242 16.1554,-6.31554 22.62661,-9.31409 6.47121,-2.99856 12.74891,-5.7497 13.95046,-6.11364 l 2.18462,-0.66172 -0.62946,28.39129 c -0.34621,15.61521 -1.03808,31.44588 -1.53749,35.17927 -0.89204,6.66847 -2.42682,36.37052 -3.23862,62.6757 l -0.41198,13.34969 -3.34864,-0.15698 c -1.84175,-0.0863 -9.05054,-0.44393 -16.01953,-0.79464 z"
       id="path23453"
       transform="scale(0.26458333)" /><path
       style="fill:#3a3935;fill-opacity:1;stroke:#000000;stroke-width:0"
       d="m 195.49386,728.74451 v -12.95559 l 6.87153,-3.3977 c 10.40042,-5.14261 51.49269,-21.48911 67.34373,-26.78932 7.71568,-2.57995 16.74408,-5.87896 20.06311,-7.33115 3.31905,-1.45219 6.53323,-2.64034 7.14263,-2.64034 0.84683,0 0.99961,3.39717 0.64814,14.41206 -0.50387,15.79134 -0.0309,14.40331 -6.84823,20.09788 -2.83472,2.36786 -23.32604,9.93537 -35.42271,13.08171 -4.69378,1.22085 -11.41195,3.25781 -14.92926,4.52657 -3.51732,1.26877 -10.06256,3.27945 -14.54499,4.46819 -4.48243,1.18873 -13.03722,3.79973 -19.01065,5.80221 -5.97342,2.00248 -10.96259,3.64991 -11.08703,3.66097 -0.12445,0.0111 -0.22627,-5.80992 -0.22627,-12.93549 z"
       id="path23455"
       transform="scale(0.26458333)" /><path
       style="fill:#3a3935;fill-opacity:1;stroke:#000000;stroke-width:0"
       d="m 455.24518,798.77209 c -0.74784,-0.43839 -3.96053,-1.26869 -7.13933,-1.84512 -3.17879,-0.57642 -7.7087,-1.80842 -10.06648,-2.73776 -7.09464,-2.79645 -21.24182,-3.86961 -50.21937,-3.80951 -14.93356,0.031 -27.92305,-0.16234 -28.86554,-0.42961 -1.61482,-0.45792 -1.67694,-1.19754 -1.07734,-12.8284 0.34996,-6.78835 1.00153,-14.17522 1.44794,-16.41525 0.44641,-2.24003 0.83733,-10.38561 0.86872,-18.10128 0.0314,-7.71568 0.65598,-19.32312 1.38797,-25.79433 0.732,-6.47121 1.33497,-15.76235 1.33994,-20.64697 l 0.009,-8.88114 5.65666,-2.55922 c 3.11115,-1.40757 12.37675,-4.6754 20.59021,-7.26185 24.01223,-7.56154 54.09827,-18.133 58.15037,-20.43254 l 2.48892,-1.41245 0.0114,2.99262 c 0.006,1.64595 1.09856,11.95277 2.42733,22.90404 1.32878,10.95128 2.54576,23.9842 2.70443,28.96206 0.15866,4.97785 0.93272,15.15982 1.72014,22.6266 0.7874,7.46678 1.62431,25.48887 1.85978,40.04909 0.44761,27.67776 0.43122,27.80523 -3.29478,25.62102 z"
       id="path24492"
       transform="scale(0.26458333)" /><path
       style="fill:#62615d;fill-opacity:1;stroke:#000000;stroke-width:0"
       d="m 239.84201,789.72195 c -0.74668,-0.51194 -2.2942,-0.93704 -3.43894,-0.94466 -1.14474,-0.008 -3.23686,-0.61141 -4.64917,-1.34174 -1.41231,-0.73033 -5.97397,-1.59983 -10.13703,-1.93222 -4.16306,-0.33238 -8.06045,-0.99174 -8.66088,-1.46523 -0.60042,-0.47349 -1.4568,-0.63523 -1.90306,-0.35943 -0.44625,0.2758 -1.58411,-0.0835 -2.52857,-0.79837 -0.94446,-0.7149 -2.63357,-1.31277 -3.75359,-1.3286 -1.12002,-0.0158 -2.03639,-0.43606 -2.03639,-0.93385 0,-0.49778 -1.62136,-0.90506 -3.60302,-0.90506 -3.17287,0 -3.679,-0.29714 -4.23954,-2.48893 -0.79436,-3.10609 -0.75344,-9.44221 0.14887,-23.05204 l 0.70326,-10.6074 3.72148,-1.35181 c 2.04681,-0.74349 9.21974,-3.00882 15.93984,-5.03406 6.72011,-2.02523 17.10572,-5.27365 23.07914,-7.21869 5.97342,-1.94505 14.119,-4.36257 18.10128,-5.37227 7.92795,-2.01011 21.7089,-6.53733 24.48945,-8.04509 0.96658,-0.52413 3.52081,-1.60423 5.67606,-2.40024 2.15525,-0.796 5.20984,-2.65585 6.78798,-4.13299 l 2.86934,-2.68571 0.28133,7.91136 c 0.15473,4.35124 -0.15073,12.41299 -0.6788,17.91499 -0.52807,5.502 -0.9562,16.09125 -0.9514,23.53167 0.005,7.44042 -0.48286,17.499 -1.08368,22.35241 l -1.09242,8.82437 -14.07614,0.0398 c -7.74188,0.0219 -17.13073,0.45294 -20.86412,0.95797 -11.75201,1.58972 -16.7003,1.82642 -18.10128,0.86587 z"
       id="path26986"
       transform="scale(0.26458333)" /><path
       style="fill:#62615d;fill-opacity:1;stroke:#000000;stroke-width:0"
       d="m 363.8358,667.08571 c 0,-11.9478 0.32341,-17.79522 1.00761,-18.21808 0.55419,-0.3425 5.747,-2.36296 11.53957,-4.4899 5.79258,-2.12694 14.80838,-5.51591 20.03513,-7.53103 5.22674,-2.01513 15.61236,-5.55782 23.07914,-7.87266 7.46677,-2.31484 16.49532,-5.18614 20.06343,-6.38067 3.56811,-1.19453 6.72452,-2.17188 7.01425,-2.17188 0.28972,0 0.53479,2.54549 0.54458,5.65665 0.01,3.11116 0.6065,8.91489 1.32602,12.89717 0.71952,3.98228 1.32242,9.08579 1.33979,11.34114 0.0358,4.64982 1.2178,3.86783 -14.44945,9.55955 -4.72896,1.71797 -9.41267,3.50138 -10.40824,3.96314 -2.12679,0.98642 -18.0017,6.2313 -37.10763,12.25991 -7.46678,2.35604 -15.76486,5.25082 -18.44017,6.43285 -2.67531,1.18203 -5.01716,2.14915 -5.20412,2.14915 -0.18695,0 -0.33991,-7.9179 -0.33991,-17.59534 z"
       id="path28506"
       transform="scale(0.26458333)" /><path
       style="fill:none;stroke:#ffffff;stroke-width:0.264583px;stroke-linecap:butt;stroke-linejoin:miter;stroke-opacity:1"
       d="m 80.04114,198.93546 c 0.399109,0 0.798217,0 1.197325,0 0.07982,0 0.159644,0 0.239466,0 0.05987,0 0.121518,-0.0145 0.179597,0 0.0991,0.0248 0.0421,0.0664 0.05987,0.11973 0.0141,0.0423 0.05112,0.076 0.05987,0.11974 0.04669,0.23346 -0.116713,0.4489 -0.179599,0.65852 -0.04992,0.16641 -0.09764,0.57482 -0.119732,0.7184 -0.01847,0.11997 -0.03991,0.23946 -0.05987,0.35919 -0.01995,0.11974 -0.02793,0.2421 -0.05987,0.3592 -0.02827,0.10368 -0.07982,0.19956 -0.119732,0.29933 -0.143169,0.35793 -0.08575,0.19739 -0.179599,0.47893 -0.01995,0.0599 -0.03643,0.12101 -0.05986,0.1796 -0.01656,0.0414 -0.04905,0.0764 -0.05987,0.11974 -0.0097,0.0387 0,0.0798 0,0.11973"
       id="path28512" /><path
       style="fill:none;stroke:#ffffff;stroke-width:0.264583px;stroke-linecap:butt;stroke-linejoin:miter;stroke-opacity:1"
       d="m 82.974586,199.05519 c -0.159644,0.59867 -0.343217,1.19145 -0.47893,1.79599 -0.140036,0.6238 -0.371446,1.14909 0.05987,1.67625 0.06805,0.0832 0.194429,0.0964 0.299331,0.11974 0.07792,0.0173 0.160732,0.0131 0.239466,0 0.440674,-0.0734 0.592098,-0.13771 0.957861,-0.41907 0.111842,-0.086 0.223573,-0.18028 0.299331,-0.29933 0.157594,-0.24765 0.119732,-0.44657 0.119732,-0.71839 0,-0.11974 0,-0.23947 0,-0.3592 0,-0.0798 0.0088,-0.16013 0,-0.23947 -0.05719,-0.5147 -0.03206,-0.0962 -0.179599,-0.53879 -0.02955,-0.0887 -0.09524,-0.61046 -0.239464,-0.65853 -0.0568,-0.0189 -0.122807,0.0189 -0.179599,0 -0.04233,-0.0141 -0.07644,-0.049 -0.119732,-0.0599 -0.03872,-0.01 -0.07982,0 -0.119735,0 -0.03991,0 -0.07982,0 -0.119732,0 -0.05986,0 -0.119732,0 -0.179599,0 -0.01995,0 -0.04202,-0.009 -0.05987,0 -0.02524,0.0126 -0.03463,0.0472 -0.05987,0.0599 -0.01786,0.009 -0.03991,0 -0.05986,0 -0.01995,0 -0.04576,0.0141 -0.05987,0 -0.01225,-0.0122 0.01188,-0.15586 0,-0.1796 -0.03218,-0.0643 -0.07982,-0.11973 -0.119732,-0.1796 z"
       id="path28514" /><path
       style="fill:none;stroke:#f9f9f9;stroke-width:0.264583px;stroke-linecap:butt;stroke-linejoin:miter;stroke-opacity:1"
       d="m 86.566559,199.29466 c -0.259421,0.5787 -0.681828,1.1093 -0.778261,1.73612 -0.03704,0.24075 0.246822,0.42642 0.419063,0.59866 0.113763,0.11376 0.272986,0.17204 0.419065,0.23947 0.390451,0.1802 1.046134,0.29425 1.436788,0.0599 0.382593,-0.22956 0.538136,-0.49128 0.778262,-0.83813 0.122515,-0.17696 0.35298,-0.50362 0.419063,-0.71839 0.0415,-0.13487 0.03667,-0.27988 0.05987,-0.41906 0.07943,-0.47661 0.05986,-0.11969 0.05986,-0.59867 0,-0.17012 0.0357,-0.23178 -0.05986,-0.35919 -0.03387,-0.0452 -0.07133,-0.0907 -0.119732,-0.11974 -0.05411,-0.0325 -0.12101,-0.0364 -0.179599,-0.0599 -0.04143,-0.0166 -0.07572,-0.0525 -0.119732,-0.0599 -0.07874,-0.0131 -0.159644,0 -0.239466,0 -0.452062,0 -0.162777,-0.0164 -0.65853,0.0599 -0.139464,0.0215 -0.279596,0.0384 -0.419063,0.0599 -0.119972,0.0185 -0.238416,0.0478 -0.359195,0.0599 -0.07943,0.008 -0.160261,-0.01 -0.239467,0 -0.39828,0.0498 -0.103219,0.0344 -0.359196,0.11973 -0.01894,0.006 -0.04576,-0.0141 -0.05987,0 -0.0141,0.0141 0,0.0399 0,0.0599 0,0.0599 0,0.11973 0,0.1796 z"
       id="path28516" /><path
       style="fill:none;stroke:#ffffff;stroke-width:0.264583px;stroke-linecap:butt;stroke-linejoin:miter;stroke-opacity:1"
       d="m 90.397999,200.43215 c -0.01996,0 -0.04577,0.0141 -0.05987,0 -0.0141,-0.0142 0.0089,-0.0778 0,-0.0599 -0.04294,0.0859 -0.100552,0.34236 -0.119732,0.41906 -0.01996,0.0798 -0.04966,0.15787 -0.05987,0.23947 -0.0099,0.0792 0.0072,0.15996 0,0.23946 -0.08526,0.93786 -0.05986,-0.15614 -0.05986,0.95786 -0.01996,-0.15964 -0.07443,-0.3187 -0.05987,-0.47892 0.0065,-0.0717 0.07791,-0.12105 0.119733,-0.1796 0.05799,-0.0812 0.118341,-0.16071 0.179598,-0.23947 0.240384,-0.30906 0.164282,-0.22415 0.359198,-0.41906 0.03991,-0.0399 0.07133,-0.0907 0.119732,-0.11973 0.05411,-0.0325 0.125487,-0.0274 0.179599,-0.0599 0.0484,-0.029 0.06925,-0.0945 0.119732,-0.11973 0.0357,-0.0178 0.08187,0.0126 0.119733,0 0.02677,-0.009 0.03462,-0.0472 0.05987,-0.0599 0.01785,-0.009 0.03991,0 0.05987,0 0.01995,0 0.04576,-0.0141 0.05987,0 0.01411,0.0141 0,0.0399 0,0.0599 0,0.02 0,0.0399 0,0.0599 0,0.0599 0,0.11974 0,0.1796 0,0.33924 0,0.67849 0,1.01773 0,0.0199 0,0.0399 0,0.0599 0,0.02 0.0089,0.042 0,0.0599 -0.01262,0.0252 -0.04725,0.0346 -0.05987,0.0599 -0.0089,0.0179 0,0.0399 0,0.0599 0,0.02 0,0.0399 0,0.0599 0,0.0199 -0.01995,0.0599 0,0.0599 0.01995,0 0,-0.0399 0,-0.0599 0,-0.0952 -0.01572,-0.28061 0,-0.3592 0.0088,-0.0438 0.04904,-0.0764 0.05987,-0.11973 0.01936,-0.0774 -0.02524,-0.16374 0,-0.23947 0.0089,-0.0268 0.04535,-0.0357 0.05987,-0.0599 0.06887,-0.11479 0.105344,-0.24782 0.179599,-0.3592 -0.006,-0.1186 0.08818,-0.0283 0.119733,-0.0599 0.01411,-0.0141 -0.01785,-0.0509 0,-0.0599 4.5e-4,-2.3e-4 0.33833,-0.0104 0.359197,0 0.05906,0.0295 0.159908,0.24026 0.179599,0.29933 0.02602,0.0781 0.04823,0.15801 0.05987,0.23946 0.0085,0.0593 0,0.11974 0,0.1796 0,0.1796 0,0.3592 0,0.5388"
       id="path28518" /><path
       style="fill:none;stroke:#ffffff;stroke-width:0.264583px;stroke-linecap:butt;stroke-linejoin:miter;stroke-opacity:1"
       d="m 93.69064,198.87559 c 0,1.69888 -0.05765,0.55577 0.119732,1.91572 0.06979,0.53509 0.05987,0.47914 0.05987,0.898 0,0.0998 -0.0141,0.20055 0,0.29933 0.0063,0.0442 0.04904,0.0764 0.05987,0.11973 0.0155,0.062 0,0.17082 0,0.23947 0,0.0199 0.0141,0.0457 0,0.0599 -0.0141,0.0141 -0.03991,0 -0.05987,0 -0.01995,0 -0.03991,0 -0.05987,0"
       id="path28520" /><path
       style="fill:none;stroke:#ffffff;stroke-width:0.264583px;stroke-linecap:butt;stroke-linejoin:miter;stroke-opacity:1"
       d="m 80.09179,198.95952 c 0,0.2681 0,0.5362 0,0.8043"
       id="path28522" /><path
       style="fill:none;stroke:#ffffff;stroke-width:1;stroke-linecap:butt;stroke-linejoin:miter;stroke-dasharray:none;stroke-opacity:1"
       d="m 62.820409,169.15792 c 0.282212,-0.11288 0.566065,-0.22175 0.846638,-0.33865 1.074083,-0.44754 2.13919,-0.91667 3.217216,-1.35462 1.052918,-0.42775 6.063332,-2.29721 6.265109,-2.37058 1.940179,-0.70552 0.988819,-0.30901 2.709235,-0.84664 0.511088,-0.15971 1.012164,-0.35051 1.523947,-0.50798 0.222428,-0.0684 0.456533,-0.0957 0.677307,-0.16933 0.342186,-0.11406 0.463336,-0.33865 0.846638,-0.33865"
       id="path28579" /><path
       style="fill:none;stroke:#ffffff;stroke-width:1;stroke-linecap:butt;stroke-linejoin:miter;stroke-dasharray:none;stroke-opacity:1"
       d="m 70.10148,166.27936 c 0.567579,1.13515 0.708168,1.34602 1.185291,2.70923 0.19467,0.5562 0.283615,1.14839 0.507982,1.69328 0.173262,0.42077 0.459406,0.7858 0.677309,1.18529 0.181309,0.33239 0.338656,0.67731 0.507982,1.01596 0.05644,0.11289 0.129418,0.21893 0.169328,0.33866 0.01786,0.0535 -0.01786,0.11578 0,0.16932 0.408837,1.22651 -0.04882,-0.26696 0.338653,0.50799 0.02524,0.0505 0,0.11288 0,0.16932 0,0.11289 -0.02738,0.22914 0,0.33866 0.03061,0.12244 0.112887,0.22577 0.169328,0.33865 0.05644,0.11289 0.09932,0.23364 0.169328,0.33866 0.04428,0.0664 0.144084,0.0936 0.169328,0.16932 0.0357,0.1071 -0.0357,0.23157 0,0.33866 0.249148,0.74744 0.169326,-0.6152 0.169326,0.50798"
       id="path28581" /><path
       style="fill:none;stroke:#ffffff;stroke-width:1;stroke-linecap:butt;stroke-linejoin:miter;stroke-dasharray:none;stroke-opacity:1"
       d="m 80.09179,168.98859 c -0.395097,0.62087 -0.998006,1.15092 -1.185291,1.86261 -0.193985,0.73714 0.313462,1.46272 0.846635,1.8626 1.123786,0.84283 2.506538,1.18529 3.894529,1.18529 1.208304,0 1.620469,0.0728 2.370579,-0.67731 0.668729,-0.66873 0.507984,-1.69114 0.507984,-2.53991 0,-0.67734 0,-0.33863 0,-1.01597 0,-0.11288 0.05048,-0.23768 0,-0.33865 -0.07139,-0.14279 -0.225772,-0.22577 -0.338656,-0.33866 -0.112885,-0.11288 -0.210939,-0.24286 -0.338653,-0.33865 -0.100968,-0.0757 -0.230431,-0.10439 -0.338657,-0.16933 -0.174503,-0.1047 -0.325958,-0.24764 -0.507981,-0.33865 -0.159642,-0.0798 -0.334825,-0.12604 -0.507982,-0.16933 -0.68658,-0.17164 -0.900347,-0.16933 -1.523944,-0.16933 -0.225769,0 -0.453284,-0.028 -0.677309,0 -0.230921,0.0289 -0.447757,0.13107 -0.67731,0.16933 -0.49276,0.0821 -0.66508,-0.1428 -1.185291,0.16933 -0.136893,0.0821 -0.279363,0.19043 -0.338653,0.33865 -0.06289,0.15722 0,0.33866 0,0.50798 z"
       id="path28583" /><path
       style="fill:none;stroke:#ffffff;stroke-width:1;stroke-linecap:butt;stroke-linejoin:miter;stroke-dasharray:none;stroke-opacity:1"
       d="m 87.542189,161.87685 c 3.604149,7.2083 -1.362641,-2.96474 1.693272,4.06386 0.281988,0.64857 0.686578,1.23676 1.015963,1.86259 0.235125,0.44674 0.451538,0.90308 0.67731,1.35462 0.298974,0.59795 0.538395,1.21571 1.015963,1.69328"
       id="path28585" /><path
       style="fill:none;stroke:#ffffff;stroke-width:1;stroke-linecap:butt;stroke-linejoin:miter;stroke-dasharray:none;stroke-opacity:1"
       d="m 93.976623,165.2634 c 0,0.39509 -0.14183,0.81652 0,1.18529 0.34454,0.8958 0.917699,1.09609 1.693272,1.35461 0.342739,0.11425 0.981663,0.27589 1.354619,0.16933 0.195675,-0.0559 0.351645,-0.20837 0.507982,-0.33865 0.577903,-0.48159 0.908304,-0.93966 1.015963,-1.69327 0.02394,-0.16763 0,-0.33866 0,-0.50799 0,-0.11288 0.04193,-0.23384 0,-0.33865 -0.07558,-0.18895 -0.23395,-0.33348 -0.338654,-0.50798 -0.194228,-0.32372 -0.313753,-0.69225 -0.507981,-1.01597 0.03498,-0.34682 -0.358672,-0.45334 -0.507982,-0.67731 -0.07001,-0.10501 -0.08008,-0.24941 -0.169328,-0.33865 -0.03991,-0.0399 -0.112884,0 -0.169328,0"
       id="path28587" /><path
       style="fill:none;stroke:#ffffff;stroke-width:1;stroke-linecap:butt;stroke-linejoin:miter;stroke-dasharray:none;stroke-opacity:1"
       d="m 100.58039,164.07811 c 0.39509,-0.0565 0.81745,-0.0145 1.18529,-0.16933 0.72267,-0.30429 1.37949,-0.75034 2.03192,-1.18529 0.19925,-0.13283 0.38478,-0.30264 0.50799,-0.50798 0.0581,-0.0968 0,-0.22577 0,-0.33866 0,-0.15421 0.0798,-0.44569 -0.16933,-0.50798 -0.16427,-0.0411 -0.33866,0 -0.50798,0 -0.16933,0 -0.33866,0 -0.50799,0 -0.16932,0 -0.33865,0 -0.50798,0 -0.16932,0 -0.34194,-0.0332 -0.50798,0 -0.12376,0.0248 -0.22147,0.12245 -0.33865,0.16933 -0.16572,0.0663 -0.33866,0.11288 -0.50798,0.16932 -0.58371,0.19457 -0.38178,0.0431 -0.67731,0.33866 -0.0564,0.0564 -0.14409,0.0936 -0.16933,0.16933 -0.0357,0.10709 0,0.22576 0,0.33865 0,0.11289 0,0.22577 0,0.33865 0,0.31972 -0.0411,0.9223 0.16933,1.1853 0.32507,0.40634 0.79636,0.67024 1.18529,1.01596 0.11932,0.10606 0.22577,0.22577 0.33865,0.33865 0.0564,0.0565 0.10291,0.12505 0.16933,0.16933 0.10501,0.07 0.23364,0.0993 0.33865,0.16933 0.0664,0.0443 0.0979,0.13363 0.16933,0.16933 0.0505,0.0252 0.11289,0 0.16933,0 0.11288,0 0.22577,0 0.33865,0 0.3951,0 0.7902,0 1.18529,0"
       id="path28589" /><path
       style="fill:none;stroke:#ffffff;stroke-width:1;stroke-linecap:butt;stroke-linejoin:miter;stroke-dasharray:none;stroke-opacity:1"
       d="m 106.16819,158.99829 c 0.20087,0.61813 0.83655,0.86638 1.18529,1.35461 0.14671,0.20541 0.21342,0.45815 0.33865,0.67731 0.10097,0.1767 0.21153,0.34907 0.33866,0.50799 0.0817,0.10215 0.6773,0.65771 0.6773,0.67731 0,0.0564 -0.12941,0.0399 -0.16932,0 -8e-4,-8e-4 0.001,-0.50147 0,-0.50799 -0.035,-0.17502 -0.12029,-0.33636 -0.16933,-0.50798 -0.0639,-0.22376 -0.13642,-0.44693 -0.16933,-0.67731 -0.0399,-0.27937 0,-0.56442 0,-0.84663 0,-0.11289 0,-0.22577 0,-0.33866 0,-0.0564 -0.0252,-0.11884 0,-0.16933 0.0357,-0.0714 0.12505,-0.10291 0.16933,-0.16932 0.07,-0.10501 0.0684,-0.26293 0.16933,-0.33866 0.14279,-0.10709 0.33865,-0.11288 0.50798,-0.16932 0.16933,-0.0564 0.33296,-0.13433 0.50798,-0.16933 0.0417,-0.008 0.80733,-0.01 0.84664,0 0.12244,0.0306 0.22577,0.11288 0.33865,0.16933 0.11289,0.0564 0.23769,0.0936 0.33866,0.16932 0.49338,0.37004 0.74677,1.20874 1.01596,1.69327 0.0988,0.1779 0.21655,0.34518 0.33865,0.50799 0.10635,0.1418 0.4387,0.36942 0.50799,0.50798 0.0252,0.0505 -0.0252,0.11884 0,0.16933 0.10159,0.20319 0.40638,0.30479 0.50798,0.50798 0.24915,0.49829 -0.39226,-0.22294 0.16933,0.33865"
       id="path28593" /><path
       style="fill:none;stroke:#000000;stroke-width:0.264583px;stroke-linecap:butt;stroke-linejoin:miter;stroke-opacity:1"
       d="m 57.71104,152.65887 c 0.829308,-0.41465 0.63092,-0.4047 2.03545,-0.23946 0.177266,0.0208 0.379924,0.0909 0.478931,0.23946 0.161171,0.24176 0.18592,0.55255 0.239463,0.83813 0.116938,0.62366 0.161936,1.52215 0.119735,2.15518 -0.01614,0.24223 -0.0854,0.47807 -0.119735,0.7184 -0.0056,0.0395 0,0.15964 0,0.11973 0,-0.27938 -0.0164,-0.55924 0,-0.83813 0.0395,-0.67146 0.186638,-1.88166 0.359199,-2.51438 0.122915,-0.45068 0.198644,-0.94334 0.47893,-1.31706 0.340344,-0.45379 0.824555,-0.79616 1.317056,-1.07759 0.637074,-0.36404 1.313537,-0.70687 2.035453,-0.83813 1.024218,-0.18622 3.35652,-0.18757 4.669565,0 0.985393,0.14077 0.960797,0.22838 1.795986,0.47893 0.157618,0.0473 0.320704,0.0745 0.478931,0.11973 0.121353,0.0347 0.236757,0.0891 0.359195,0.11974 0.104077,0.026 0.360543,0 0.47893,0"
       id="path28691" /><path
       style="fill:none;stroke:#000000;stroke-width:0.264583px;stroke-linecap:butt;stroke-linejoin:miter;stroke-opacity:1"
       d="m 64.176592,153.497 c -0.956273,-0.19126 -0.686546,-0.25858 -1.915719,0.47893 -0.193598,0.11616 -0.416906,0.26184 -0.47893,0.47893 -0.03953,0.13836 0.137711,0.25744 0.239464,0.35919 0.101753,0.10176 0.225589,0.18602 0.359198,0.23947 0.07411,0.0296 0.159642,0 0.239464,0 0.239467,0 0.47893,0 0.718394,0"
       id="path28693" /><path
       style="fill:none;stroke:#000000;stroke-width:0.264583px;stroke-linecap:butt;stroke-linejoin:miter;stroke-opacity:1"
       d="m 64.655522,153.25753 c 0.319286,0.31929 0.638572,0.63858 0.957858,0.95786 0.07982,-0.0399 0.267687,-0.20439 0.239466,-0.11973 -0.263369,0.7901 -0.828794,1.14497 -1.317056,1.79599 -0.385971,0.51462 -0.389184,0.47893 -0.119735,0.47893"
       id="path28695" /><path
       style="fill:none;stroke:#000000;stroke-width:0.264583px;stroke-linecap:butt;stroke-linejoin:miter;stroke-opacity:1"
       d="m 68.008031,153.61673 c 0.87911,-1.04126 -0.852633,-0.29749 -0.718397,0.23946 0.03842,0.1537 0.563626,0.14601 0.598662,0.11974 0.100968,-0.0757 0.0026,-0.40607 0.119735,-0.3592 0.91835,0.36734 0.386474,0.69653 0.119732,1.07759 -0.596104,0.85158 -0.35505,0.63396 -1.077593,1.43679 -0.151032,0.16781 -0.305488,0.3344 -0.47893,0.47893 -0.06856,0.0571 -0.165208,0.0702 -0.239464,0.11973 -0.04696,0.0313 -0.06925,0.0945 -0.119734,0.11973 -0.0952,0.0476 -0.338437,-0.0886 -0.359196,-0.11973 -0.04428,-0.0664 0.01566,-0.16119 0,-0.23946 -0.02474,-0.12376 -0.08912,-0.23676 -0.119732,-0.3592 -0.0097,-0.0387 0,-0.0798 0,-0.11973 0,-0.0399 -0.02822,-0.0915 0,-0.11973 0.02822,-0.0282 0.07982,0 0.119732,0 0.07982,0 0.159642,0 0.239464,0"
       id="path28697" /><path
       style="fill:none;stroke:#000000;stroke-width:0.264583px;stroke-linecap:butt;stroke-linejoin:miter;stroke-opacity:1"
       d="m 70.761875,152.7786 c -0.976998,1.4655 -2.124083,2.38428 1.436791,1.19733 0.389863,-0.12996 0.679804,-1.03702 0.359198,-1.19733 -0.249883,-0.12494 -0.558752,0 -0.838129,0 -0.319286,0 -0.638571,0 -0.95786,0 z"
       id="path28699" /><path
       style="fill:none;stroke:#000000;stroke-width:0.264583px;stroke-linecap:butt;stroke-linejoin:miter;stroke-opacity:1"
       d="m 73.755188,152.65887 c -0.290793,1.74476 -0.191262,-0.28689 0.718394,1.07759 0.09393,0.14089 -0.230634,0.249 -0.359198,0.3592 -0.151511,0.12987 -0.325628,0.23144 -0.47893,0.3592 -0.08672,0.0723 -0.145537,0.17684 -0.239464,0.23946 -0.03321,0.0221 -0.07982,0 -0.119732,0"
       id="path28701" /><path
       style="fill:none;stroke:#000000;stroke-width:0.264583px;stroke-linecap:butt;stroke-linejoin:miter;stroke-opacity:1"
       d="m 69.085621,156.25084 c -0.03991,0.39911 -0.07982,0.79822 -0.119732,1.19733"
       id="path28703" /><path
       style="fill:none;stroke:#000000;stroke-width:0.264583px;stroke-linecap:butt;stroke-linejoin:miter;stroke-opacity:1"
       d="m 71.001341,156.49031 c -0.825682,-0.16514 -0.425026,-0.27691 -0.838128,0.23946 -0.08726,0.10908 -0.359196,0.29147 -0.359196,0.47893 0,0.0399 0.08403,-0.0179 0.119732,0 0.05048,0.0252 0.06925,0.0945 0.119732,0.11973 0.01021,0.005 0.468723,0.005 0.47893,0 0.05048,-0.0252 0.06925,-0.0945 0.119732,-0.11973 0.0357,-0.0179 0.09151,0.0282 0.119732,0 0.02822,-0.0282 -0.01786,-0.084 0,-0.11973 0.02524,-0.0505 0.07982,-0.0798 0.119735,-0.11973"
       id="path28707" /><path
       style="fill:none;stroke:#000000;stroke-width:0.264583px;stroke-linecap:butt;stroke-linejoin:miter;stroke-opacity:1"
       d="m 71.719735,154.45486 c 0,2.4237 0.120608,0.35482 -0.239463,2.15518 -0.02349,0.11741 0.01968,0.24109 0,0.3592 -0.02074,0.12449 -0.09498,0.23544 -0.119735,0.35919 -0.01566,0.0783 0.0357,0.16808 0,0.23947 -0.01786,0.0357 -0.07982,0 -0.119732,0"
       id="path28709" /><path
       style="fill:none;stroke:#000000;stroke-width:0.264583px;stroke-linecap:butt;stroke-linejoin:miter;stroke-opacity:1"
       d="m 73.515722,154.81405 c -0.399286,0.70065 -0.476719,1.55211 -0.838126,2.27492 -0.02524,0.0505 -0.119732,0.0633 -0.119732,0.11973 0,0.0399 0.08187,0.0126 0.119732,0 0.321363,-0.10712 0.200477,-0.13644 0.47893,-0.3592 0.414068,-0.33125 0.93767,-0.45874 1.317056,-0.83812 0.03991,-0.0399 0.119732,-0.0633 0.119732,-0.11973 0,-0.0399 -0.07982,0 -0.119732,0"
       id="path28711" /><path
       style="fill:none;stroke:#000000;stroke-width:0.264583px;stroke-linecap:butt;stroke-linejoin:miter;stroke-opacity:1"
       d="m 73.515722,156.49031 c 0.3947,0.52626 0.354269,0.55546 0.95786,0.95786 0.03321,0.0221 0.07982,0 0.119732,0 0.03991,0.0399 0.07982,0.0798 0.119732,0.11973"
       id="path28713" /></g></svg>
